Land_normalized_Motion_pl13
version=1
nRows=16
nColumns=43
inDegrees=yes
endheader
time		pelvis_tilt		pelvis_list		pelvis_rotation		pelvis_tx		pelvis_ty		pelvis_tz		hip_flexion_r		hip_adduction_r		hip_rotation_r		knee_angle_r		ankle_angle_r		subtalar_angle_r		mtp_angle_r		hip_flexion_l		hip_adduction_l		hip_rotation_l		knee_angle_l		ankle_angle_l		subtalar_angle_l		mtp_angle_l		lumbar_extension		lumbar_bending		lumbar_rotation		neck_flexion		neck_lateral_bending		neck_rotation		arm_flex_r		arm_add_r		arm_rot_r		elbow_flex_r		pro_sup_r		wrist_flex_r		wrist_dev_r		hand_finger_flex_r		arm_flex_l		arm_add_l		arm_rot_l		elbow_flex_l		pro_sup_l		wrist_flex_l		wrist_dev_l		hand_finger_flex_l		
1.180833		1.443314		-0.708679		83.356099		-0.014540		0.479387		0.471500		94.994339		-1.384750		-3.783277		-129.232130		12.665911		2.795996		39.007601		88.211876		-13.709304		-0.251270		-133.634431		22.034895		6.427193		41.169178		-68.360973		-1.520732		0.789123		25.809902		-4.044694		6.029121		79.074460		-31.952731		23.955857		73.763186		125.336611		-16.763866		2.271854		18.779933		57.379375		-42.854580		5.328951		78.920792		108.402849		-22.964311		1.510952		36.665061		
1.184066		1.451514		-1.405006		83.201701		-0.014405		0.475675		0.471235		96.089987		-1.292894		-3.943917		-129.516553		12.661735		2.786883		39.047983		89.167869		-13.774991		-0.094127		-133.977245		22.375938		6.311302		41.187639		-68.140383		-1.661933		0.862009		26.219553		-3.975900		5.943331		79.983065		-31.330307		24.020283		73.960418		125.128700		-16.863215		2.366004		18.580800		59.185715		-42.929367		6.408791		79.209449		108.675449		-22.775403		1.522538		36.452687		
1.187298		1.467628		-2.083440		83.038316		-0.014247		0.472152		0.470966		97.132464		-1.119537		-4.044899		-129.770589		12.681262		2.756270		39.061316		90.100743		-13.851494		0.080518		-134.285847		22.690948		6.203126		41.204113		-67.941365		-1.818053		0.952687		26.588689		-3.887574		5.851843		80.841958		-30.770838		24.094339		74.190849		124.869850		-16.942402		2.476582		18.393770		60.999433		-43.052306		7.579265		79.514747		108.960909		-22.544729		1.531655		36.251880		
1.190530		1.475024		-2.666894		82.874544		-0.014044		0.468952		0.470603		98.034670		-0.914651		-4.138798		-130.021014		12.754894		2.710717		39.046747		90.921580		-13.931836		0.232045		-134.598809		22.969668		6.146999		41.216917		-67.827593		-1.990343		1.034159		26.935990		-3.793290		5.740415		81.643504		-30.262654		24.176414		74.439180		124.552416		-16.990159		2.576425		18.226440		62.815404		-43.152327		8.772968		79.781817		109.258623		-22.282578		1.560432		36.041683		
1.193763		1.492702		-3.161173		82.725921		-0.013825		0.466033		0.470142		98.800272		-0.689380		-4.215735		-130.266826		12.878156		2.670534		39.007167		91.647389		-14.006047		0.373601		-134.909989		23.228943		6.148668		41.223847		-67.796265		-2.160099		1.120238		27.258799		-3.689083		5.633800		82.393709		-29.812623		24.268368		74.700996		124.181345		-17.012832		2.640182		18.080451		64.634374		-43.233589		9.984019		80.023937		109.582443		-21.965100		1.614262		35.831524		
1.196995		1.530415		-3.571764		82.602482		-0.013588		0.463383		0.469598		99.437256		-0.450068		-4.269121		-130.502596		13.031669		2.640159		38.936518		92.295894		-14.090133		0.529346		-135.218577		23.461649		6.208478		41.222400		-67.840656		-2.320503		1.237405		27.543429		-3.533729		5.528514		83.081898		-29.450463		24.360634		74.995816		123.718933		-17.035746		2.665409		17.935212		66.478512		-43.255216		11.227732		80.223354		109.925025		-21.595627		1.719248		35.597524		
1.200227		1.570123		-3.874449		82.506158		-0.013607		0.461180		0.468972		99.915394		-0.292243		-4.323656		-130.711707		13.177302		2.638245		38.898294		92.808429		-14.093524		0.656243		-135.516053		23.599793		6.237158		41.217661		-67.982491		-2.413218		1.278017		27.798821		-3.470783		5.495929		83.798987		-28.911484		24.430495		75.096365		123.437044		-17.037856		2.663301		17.844824		68.015496		-42.985672		11.865477		80.370503		110.110168		-21.367376		1.774454		35.460043		
1.203460		1.679208		-4.172918		82.353959		-0.013139		0.458770		0.468320		100.400202		-0.059855		-4.498597		-130.952129		13.355992		2.638019		38.699331		93.395374		-14.263252		0.917148		-135.862440		23.751303		6.405725		41.183433		-68.100165		-2.682905		1.620662		28.003748		-3.025895		5.321158		84.277157		-29.020332		24.573045		75.607760		122.451689		-17.142777		2.616017		17.581931		70.167452		-42.947752		13.679289		80.426139		110.493599		-20.773423		2.086825		35.010168		
1.206692		1.750573		-4.474627		82.260923		-0.013270		0.456689		0.467637		100.853017		0.047906		-4.564947		-131.150775		13.523049		2.666270		38.654489		93.942595		-14.263840		1.084522		-136.156740		23.854398		6.353952		41.170337		-68.224510		-2.723771		1.674924		28.289369		-3.125268		5.393488		84.973947		-28.572057		24.793576		75.739750		122.218814		-17.101971		2.550453		17.493008		71.530885		-42.766219		14.277307		80.570748		110.620105		-20.504343		2.080773		34.883274		
1.209924		1.979018		-4.702900		82.122396		-0.012908		0.454658		0.467028		101.193003		0.206896		-4.872997		-131.336524		13.696894		2.694503		38.438897		94.523434		-14.410886		1.495295		-136.504476		23.750840		6.364210		41.119746		-68.394839		-2.935673		2.118816		28.416473		-2.621257		5.248168		85.447101		-28.728679		25.012416		76.158063		121.140236		-17.228232		2.453154		17.083876		73.511983		-42.540814		15.901443		80.521188		110.553646		-20.052259		2.307476		34.305369		
1.213157		2.056647		-4.961716		82.021223		-0.013026		0.452846		0.466402		101.565542		0.283241		-4.962821		-131.501522		13.866859		2.686587		38.356600		95.043342		-14.400413		1.720556		-136.783130		23.759836		6.310175		41.100203		-68.534005		-3.009334		2.224708		28.601132		-2.659211		5.276735		86.054122		-28.444426		25.273983		76.344223		120.766057		-17.193398		2.360009		16.866925		74.808728		-42.242939		16.519471		80.559704		110.471204		-19.944729		2.322462		34.014513		
1.216389		2.232722		-5.224616		81.905035		-0.013028		0.451074		0.465851		101.909749		0.362780		-5.199379		-131.648703		14.081596		2.674335		38.166560		95.617463		-14.446519		2.046290		-137.074128		23.657122		6.250458		41.059291		-68.663502		-3.115194		2.538367		28.738199		-2.491631		5.191915		86.610762		-28.470759		25.636296		76.658340		119.971781		-17.185435		2.223203		16.389822		76.354703		-42.011369		17.697880		80.519192		110.195550		-19.852223		2.394617		33.406164		
1.219621		2.325576		-5.542503		81.811321		-0.013232		0.449246		0.465287		102.303550		0.373678		-5.363391		-131.799967		14.403464		2.646879		38.088701		96.225243		-14.416876		2.267730		-137.356232		23.589064		6.187734		41.040697		-68.727445		-3.165012		2.708544		28.901066		-2.596037		5.208740		87.218767		-28.425692		26.093999		76.945464		119.640158		-17.046571		2.003520		16.118501		77.628375		-41.869123		18.571772		80.597865		110.133788		-19.752155		2.390842		33.125210		
1.222854		2.540132		-5.720547		81.735876		-0.013204		0.447949		0.464831		102.465947		0.418067		-5.661851		-131.891512		14.633959		2.535904		37.670540		96.689985		-14.429832		2.655418		-137.606028		23.416978		6.180958		40.981545		-68.924929		-3.281638		3.143715		28.903782		-2.313388		4.848693		87.685293		-28.681043		26.463220		77.289666		118.369931		-16.983975		1.784753		14.954315		79.201303		-41.400635		19.912826		80.371754		109.461611		-20.318217		2.569816		32.072786		
1.226086		2.515153		-5.995206		81.674100		-0.013538		0.446686		0.464351		102.745490		0.402822		-5.699156		-131.969444		14.985927		2.440088		37.650090		97.131323		-14.333935		2.728751		-137.787634		23.405882		6.175324		40.974586		-69.021412		-3.313781		3.100669		28.994579		-2.486588		4.899370		88.219777		-28.365159		26.759217		77.432239		118.322635		-16.852079		1.670040		14.832619		80.096807		-41.069357		20.111046		80.402336		109.463637		-20.302359		2.557111		31.987452		
1.229318		2.586752		-6.299611		81.659719		-0.013972		0.445252		0.463880		103.006992		0.298441		-5.860220		-132.054609		15.466799		2.309399		37.558877		97.686916		-14.226707		2.862807		-138.006008		23.265893		6.131994		40.956478		-69.072300		-3.291657		3.258569		29.094906		-2.612022		4.830219		88.781693		-28.395632		27.232442		77.660642		118.107514		-16.653214		1.440354		14.545987		81.151991		-40.784580		20.756706		80.413802		109.450039		-20.323206		2.563930		31.802909		
